<svg width="546" height="367" viewBox="0 0 546 367" fill="none" xmlns="http://www.w3.org/2000/svg">
<path d="M171.449 61.6329C169.822 60.9836 167.868 59.8474 165.59 58.2242C163.311 56.601 160.056 55.1402 155.824 53.8416C151.592 52.2184 146.221 50.9199 139.711 49.9459C133.201 48.9721 124.9 48.8097 114.809 49.4591V0.276611C129.132 0.601248 143.617 2.22443 158.266 5.14616C173.24 7.74324 185.284 11.9635 194.398 17.807C192.445 22.0272 190.167 26.7345 187.562 31.9286C184.958 36.7982 182.517 41.5054 180.238 46.0503C177.96 50.2706 176.007 53.8416 174.379 56.7634C172.751 59.6851 171.775 61.3083 171.449 61.6329ZM2.99219 100.589C2.99219 86.3053 5.43359 73.4821 10.3164 62.1199C15.1992 50.7575 21.7096 40.8561 29.8477 32.4156C38.3112 23.6504 48.0768 16.8331 59.1445 11.9635C70.5378 6.76934 82.4193 3.36065 94.7891 1.73748V52.8677C84.3724 56.4386 75.7461 62.7691 68.9102 71.8589C62.0742 80.6241 58.6562 89.5516 58.6562 98.6414C58.6562 111.302 62.0742 121.528 68.9102 129.32C75.7461 137.11 84.3724 143.928 94.7891 149.772V205.285C84.0469 200.09 73.3047 194.572 62.5625 188.728C51.8203 182.56 42.0547 175.418 33.2656 167.302C24.4766 159.186 17.1523 149.772 11.293 139.059C5.75911 128.345 2.99219 115.522 2.99219 100.589ZM10.8047 299.267C15.362 301.864 21.0586 304.46 27.8945 307.058C35.056 309.33 42.3802 311.603 49.8672 313.875C57.3542 315.823 64.8411 317.446 72.3281 318.745C79.8151 320.043 86.8138 320.692 93.3242 320.692H94.7891V366.953H93.8125C86 366.953 77.862 366.466 69.3984 365.492C61.2604 364.843 52.9596 363.544 44.4961 361.597C36.0326 359.649 27.8945 357.052 20.082 353.806C12.5951 350.235 6.08464 346.014 0.550781 341.144L10.8047 299.267ZM114.809 159.51C125.551 164.38 136.456 169.574 147.523 175.093C158.917 180.612 169.171 187.429 178.285 195.545C187.4 203.337 194.887 212.913 200.746 224.276C206.605 235.638 209.535 249.759 209.535 266.641C209.535 278.328 207.257 289.69 202.699 300.728C198.467 311.766 192.283 321.829 184.145 330.918C176.332 339.683 166.566 347.15 154.848 353.318C143.129 359.487 129.783 363.544 114.809 365.492V318.745C141.501 312.252 154.848 294.559 154.848 265.667C154.848 254.304 151.104 244.89 143.617 237.423C136.13 229.956 126.527 222.977 114.809 216.484V159.51ZM545.473 6.12007V365.005H486.879V203.337H351.137V163.407H486.879V6.12007H545.473ZM271.547 6.12007H331.117V365.005H271.547V6.12007Z" fill="#A18A68"/>
</svg>
