<svg viewBox="0 0 13 13" fill="none" xmlns="http://www.w3.org/2000/svg">
  <path
    d="M6.06713 11.74C6.21934 11.9004 6.42395 11.9898 6.63855 11.9898C6.85065 11.9898 7.06025 11.8977 7.20997 11.74L11.694 7.01489C12.3752 6.29706 12.7495 5.34257 12.752 4.33024C12.752 3.31528 12.3777 2.3608 11.6965 1.64296C11.0153 0.925125 10.112 0.53071 9.1488 0.53071C8.20309 0.53071 7.31227 0.911978 6.63605 1.60615C5.95734 0.909349 5.06403 0.525452 4.11582 0.525452C3.15514 0.525452 2.25185 0.919867 1.57064 1.63507C0.889428 2.35291 0.515137 3.30739 0.515137 4.32235C0.515137 5.33468 0.891924 6.28917 1.57313 7.007L6.06713 11.74ZM2.00482 2.09259C2.56875 1.49834 3.31983 1.16966 4.11832 1.16966C4.91681 1.16966 5.67038 1.49834 6.23681 2.09522L6.42146 2.2898C6.47885 2.35028 6.5562 2.38446 6.63855 2.38446C6.7184 2.38446 6.79825 2.35028 6.85564 2.2898L7.0353 2.10048C7.60173 1.5036 8.3528 1.17492 9.15379 1.17492C9.95228 1.17492 10.7034 1.5036 11.2673 2.09785C11.8337 2.69473 12.1431 3.48619 12.1431 4.32761C12.1431 5.16903 11.8312 5.96049 11.2648 6.55737L6.77828 11.2851C6.70592 11.3613 6.57367 11.3613 6.49881 11.2851L2.00731 6.55211C1.44088 5.95523 1.12898 5.16377 1.12898 4.32235C1.12898 3.48093 1.44088 2.68947 2.00482 2.09259Z"
    fill="currentColor"
    stroke="currentColor"
    stroke-width="0.154737"
  />
</svg>
